<svg xmlns="http://www.w3.org/2000/svg" xml:space="preserve" id="Layer_1" x="0px" y="0px" class="h-5 w-5 transition-transform duration-200 group-hover:scale-110" version="1.1" viewBox="0 0 56.7 56.7"><path d="M-1-1H581V401H-1z" style="fill:none"/><path d="M41.8 30.5c-.1-6.2 5.1-9.2 5.3-9.4-2.9-4.2-7.4-4.8-9-4.9-3.8-.4-7.5 2.3-9.4 2.3-1.9 0-4.9-2.2-8.1-2.1-4.2.1-8 2.4-10.2 6.2C6 30.1 9.3 41.2 13.5 47.3c2.1 3 4.5 6.3 7.8 6.2 3.1-.1 4.3-2 8.1-2s4.8 2 8.1 2c3.4-.1 5.5-3 7.5-6 2.4-3.5 3.3-6.8 3.4-7C48.3 40.4 41.8 38 41.8 30.5zM35.6 12.2c1.7-2.1 2.9-5 2.6-7.9-2.5.1-5.5 1.6-7.2 3.7-1.6 1.8-3 4.8-2.6 7.6C31 15.9 33.9 14.3 35.6 12.2z" style="fill:#606060"/></svg>
